# xmcd CD database file
# Copyright (C) 1993-1997  Ti Kan
#
# Track frame offsets:
#	182
#	29057
#	45257
#	80507
#	136932
#	155132
#	184832
#	224282
#	257257
#	320507
#
# Disc length: 4683 seconds
#
# Revision: 1
# Processed by: cddbd v1.4b41PL1 Copyright (c) Steve Scherf et al.
# Submitted via: xmcd 2.2 PL0
#
DISCID=8612490a
DTITLE=B.B.King - Let The Good Times Roll - At The Montreux Jazz Festiv
DTITLE=al 1989 -
DYEAR=1900
DGENRE=
TTITLE0=Intro Part 1+2
TTITLE1=Let the good times roll
TTITLE2=when it all comes down
TTITLE3=Nobody loves me but my mother
TTITLE4=Caledonia
TTITLE5=Instrumental
TTITLE6=Every wanna know why I sing the blues
TTITLE7=Into the night
TTITLE8=the thrill is gone
TTITLE9=Woke up this morning
EXTD=B.B.King: Lead Vocals, Guitar (Lucille]\nLeon Warren: Rhythm Guit
EXTD=ar\nMichael Doster: Bass\nCalep Emphry: Drums\nJames Toney: Keyboar
EXTD=ds\nWalter King: Saxophone\nEdgar Synigal: Saxophone\nJames Bolden:
EXTD=Trumpet 
EXTT0=
EXTT1=
EXTT2=
EXTT3=
EXTT4=
EXTT5=
EXTT6=
EXTT7=
EXTT8=
EXTT9=
PLAYORDER=
